<mxfile host="app.diagrams.net" agent="Mozilla/5.0 (Windows NT 10.0; Win64; x64) AppleWebKit/537.36 (KHTML, like Gecko) Chrome/134.0.0.0 Safari/537.36 Edg/134.0.0.0" version="26.1.2">
  <diagram name="Page-1" id="i82B9QmBnuoXnQQaYynM">
    <mxGraphModel dx="1282" dy="531" grid="1" gridSize="10" guides="1" tooltips="1" connect="1" arrows="1" fold="1" page="1" pageScale="1" pageWidth="850" pageHeight="1100" math="0" shadow="0">
      <root>
        <mxCell id="0" />
        <mxCell id="1" parent="0" />
        <mxCell id="bmqAqTW3Jer1Qi-305yG-16" value="" style="whiteSpace=wrap;html=1;aspect=fixed;" parent="1" vertex="1">
          <mxGeometry x="40" y="41" width="410" height="410" as="geometry" />
        </mxCell>
        <mxCell id="bmqAqTW3Jer1Qi-305yG-17" value="" style="endArrow=none;html=1;rounded=0;exitX=0;exitY=0.2;exitDx=0;exitDy=0;exitPerimeter=0;entryX=0.996;entryY=0.235;entryDx=0;entryDy=0;entryPerimeter=0;" parent="1" target="bmqAqTW3Jer1Qi-305yG-16" edge="1">
          <mxGeometry width="50" height="50" relative="1" as="geometry">
            <mxPoint x="42" y="139" as="sourcePoint" />
            <mxPoint x="439.20000000000005" y="139.39999999999998" as="targetPoint" />
            <Array as="points" />
          </mxGeometry>
        </mxCell>
        <mxCell id="bmqAqTW3Jer1Qi-305yG-19" value="" style="endArrow=none;html=1;rounded=0;exitX=0;exitY=0.2;exitDx=0;exitDy=0;exitPerimeter=0;entryX=1;entryY=0.5;entryDx=0;entryDy=0;" parent="1" target="bmqAqTW3Jer1Qi-305yG-16" edge="1">
          <mxGeometry width="50" height="50" relative="1" as="geometry">
            <mxPoint x="41" y="245" as="sourcePoint" />
            <mxPoint x="438" y="245" as="targetPoint" />
            <Array as="points" />
          </mxGeometry>
        </mxCell>
        <mxCell id="bmqAqTW3Jer1Qi-305yG-20" value="" style="endArrow=none;html=1;rounded=0;exitX=0;exitY=0.2;exitDx=0;exitDy=0;exitPerimeter=0;entryX=1;entryY=0.75;entryDx=0;entryDy=0;" parent="1" target="bmqAqTW3Jer1Qi-305yG-16" edge="1">
          <mxGeometry width="50" height="50" relative="1" as="geometry">
            <mxPoint x="41" y="350" as="sourcePoint" />
            <mxPoint x="438" y="350" as="targetPoint" />
            <Array as="points" />
          </mxGeometry>
        </mxCell>
        <mxCell id="bmqAqTW3Jer1Qi-305yG-22" value="Pepsi" style="whiteSpace=wrap;html=1;aspect=fixed;" parent="1" vertex="1">
          <mxGeometry x="50" y="44" width="60" height="60" as="geometry" />
        </mxCell>
        <mxCell id="bmqAqTW3Jer1Qi-305yG-23" value="Coke" style="whiteSpace=wrap;html=1;aspect=fixed;" parent="1" vertex="1">
          <mxGeometry x="150" y="44" width="60" height="60" as="geometry" />
        </mxCell>
        <mxCell id="bmqAqTW3Jer1Qi-305yG-24" value="Coke" style="whiteSpace=wrap;html=1;aspect=fixed;" parent="1" vertex="1">
          <mxGeometry x="240" y="45" width="60" height="60" as="geometry" />
        </mxCell>
        <mxCell id="bmqAqTW3Jer1Qi-305yG-25" value="Pepsi" style="whiteSpace=wrap;html=1;aspect=fixed;" parent="1" vertex="1">
          <mxGeometry x="330" y="45" width="60" height="60" as="geometry" />
        </mxCell>
        <mxCell id="bmqAqTW3Jer1Qi-305yG-26" value="Soda" style="whiteSpace=wrap;html=1;aspect=fixed;" parent="1" vertex="1">
          <mxGeometry x="50" y="146" width="60" height="60" as="geometry" />
        </mxCell>
        <mxCell id="bmqAqTW3Jer1Qi-305yG-27" value="Soda" style="whiteSpace=wrap;html=1;aspect=fixed;" parent="1" vertex="1">
          <mxGeometry x="150" y="147" width="60" height="60" as="geometry" />
        </mxCell>
        <mxCell id="bmqAqTW3Jer1Qi-305yG-28" value="Soda" style="whiteSpace=wrap;html=1;aspect=fixed;" parent="1" vertex="1">
          <mxGeometry x="240" y="146" width="60" height="60" as="geometry" />
        </mxCell>
        <mxCell id="bmqAqTW3Jer1Qi-305yG-29" value="Soda" style="whiteSpace=wrap;html=1;aspect=fixed;" parent="1" vertex="1">
          <mxGeometry x="330" y="146" width="60" height="60" as="geometry" />
        </mxCell>
        <mxCell id="bmqAqTW3Jer1Qi-305yG-30" value="Water" style="whiteSpace=wrap;html=1;aspect=fixed;" parent="1" vertex="1">
          <mxGeometry x="50" y="253" width="60" height="60" as="geometry" />
        </mxCell>
        <mxCell id="bmqAqTW3Jer1Qi-305yG-31" value="Juice" style="whiteSpace=wrap;html=1;aspect=fixed;" parent="1" vertex="1">
          <mxGeometry x="150" y="253" width="60" height="60" as="geometry" />
        </mxCell>
        <mxCell id="bmqAqTW3Jer1Qi-305yG-32" value="Water" style="whiteSpace=wrap;html=1;aspect=fixed;" parent="1" vertex="1">
          <mxGeometry x="250" y="253" width="60" height="60" as="geometry" />
        </mxCell>
        <mxCell id="bmqAqTW3Jer1Qi-305yG-33" value="Juice" style="whiteSpace=wrap;html=1;aspect=fixed;" parent="1" vertex="1">
          <mxGeometry x="340" y="253" width="60" height="60" as="geometry" />
        </mxCell>
        <mxCell id="bmqAqTW3Jer1Qi-305yG-34" value="Chips&lt;span style=&quot;color: rgba(0, 0, 0, 0); font-family: monospace; font-size: 0px; text-align: start; text-wrap-mode: nowrap;&quot;&gt;%3CmxGraphModel%3E%3Croot%3E%3CmxCell%20id%3D%220%22%2F%3E%3CmxCell%20id%3D%221%22%20parent%3D%220%22%2F%3E%3CmxCell%20id%3D%222%22%20value%3D%22Water%22%20style%3D%22whiteSpace%3Dwrap%3Bhtml%3D1%3Baspect%3Dfixed%3B%22%20vertex%3D%221%22%20parent%3D%221%22%3E%3CmxGeometry%20x%3D%2250%22%20y%3D%22250%22%20width%3D%2260%22%20height%3D%2260%22%20as%3D%22geometry%22%2F%3E%3C%2FmxCell%3E%3C%2Froot%3E%3C%2FmxGraphModel%3E&lt;/span&gt;" style="whiteSpace=wrap;html=1;aspect=fixed;" parent="1" vertex="1">
          <mxGeometry x="50" y="358" width="60" height="60" as="geometry" />
        </mxCell>
        <mxCell id="bmqAqTW3Jer1Qi-305yG-35" value="Chips&lt;span style=&quot;color: rgba(0, 0, 0, 0); font-family: monospace; font-size: 0px; text-align: start; text-wrap-mode: nowrap;&quot;&gt;%3CmxGraphModel%3E%3Croot%3E%3CmxCell%20id%3D%220%22%2F%3E%3CmxCell%20id%3D%221%22%20parent%3D%220%22%2F%3E%3CmxCell%20id%3D%222%22%20value%3D%22Water%22%20style%3D%22whiteSpace%3Dwrap%3Bhtml%3D1%3Baspect%3Dfixed%3B%22%20vertex%3D%221%22%20parent%3D%221%22%3E%3CmxGeometry%20x%3D%2250%22%20y%3D%22250%22%20width%3D%2260%22%20height%3D%2260%22%20as%3D%22geometry%22%2F%3E%3C%2FmxCell%3E%3C%2Froot%3E%3C%2FmxGraphModel%3E&lt;/span&gt;" style="whiteSpace=wrap;html=1;aspect=fixed;" parent="1" vertex="1">
          <mxGeometry x="150" y="356" width="60" height="60" as="geometry" />
        </mxCell>
        <mxCell id="bmqAqTW3Jer1Qi-305yG-36" value="Chips&lt;span style=&quot;color: rgba(0, 0, 0, 0); font-family: monospace; font-size: 0px; text-align: start; text-wrap-mode: nowrap;&quot;&gt;%3CmxGraphModel%3E%3Croot%3E%3CmxCell%20id%3D%220%22%2F%3E%3CmxCell%20id%3D%221%22%20parent%3D%220%22%2F%3E%3CmxCell%20id%3D%222%22%20value%3D%22Water%22%20style%3D%22whiteSpace%3Dwrap%3Bhtml%3D1%3Baspect%3Dfixed%3B%22%20vertex%3D%221%22%20parent%3D%221%22%3E%3CmxGeometry%20x%3D%2250%22%20y%3D%22250%22%20width%3D%2260%22%20height%3D%2260%22%20as%3D%22geometry%22%2F%3E%3C%2FmxCell%3E%3C%2Froot%3E%3C%2FmxGraphModel%3E&lt;/span&gt;" style="whiteSpace=wrap;html=1;aspect=fixed;" parent="1" vertex="1">
          <mxGeometry x="250" y="356" width="60" height="60" as="geometry" />
        </mxCell>
        <mxCell id="bmqAqTW3Jer1Qi-305yG-37" value="Chips&lt;span style=&quot;color: rgba(0, 0, 0, 0); font-family: monospace; font-size: 0px; text-align: start; text-wrap-mode: nowrap;&quot;&gt;%3CmxGraphModel%3E%3Croot%3E%3CmxCell%20id%3D%220%22%2F%3E%3CmxCell%20id%3D%221%22%20parent%3D%220%22%2F%3E%3CmxCell%20id%3D%222%22%20value%3D%22Water%22%20style%3D%22whiteSpace%3Dwrap%3Bhtml%3D1%3Baspect%3Dfixed%3B%22%20vertex%3D%221%22%20parent%3D%221%22%3E%3CmxGeometry%20x%3D%2250%22%20y%3D%22250%22%20width%3D%2260%22%20height%3D%2260%22%20as%3D%22geometry%22%2F%3E%3C%2FmxCell%3E%3C%2Froot%3E%3C%2FmxGraphModel%3E&lt;/span&gt;" style="whiteSpace=wrap;html=1;aspect=fixed;" parent="1" vertex="1">
          <mxGeometry x="340" y="357" width="60" height="60" as="geometry" />
        </mxCell>
        <mxCell id="bmqAqTW3Jer1Qi-305yG-38" value="Code: 101" style="text;html=1;align=center;verticalAlign=middle;whiteSpace=wrap;rounded=0;fontStyle=1" parent="1" vertex="1">
          <mxGeometry x="48" y="101" width="60" height="30" as="geometry" />
        </mxCell>
        <mxCell id="bmqAqTW3Jer1Qi-305yG-39" value="Price: 20" style="text;html=1;align=center;verticalAlign=middle;whiteSpace=wrap;rounded=0;fontStyle=1" parent="1" vertex="1">
          <mxGeometry x="46" y="116" width="60" height="30" as="geometry" />
        </mxCell>
        <mxCell id="bmqAqTW3Jer1Qi-305yG-42" value="Price: 15" style="text;html=1;align=center;verticalAlign=middle;whiteSpace=wrap;rounded=0;fontStyle=1" parent="1" vertex="1">
          <mxGeometry x="46" y="218" width="60" height="30" as="geometry" />
        </mxCell>
        <mxCell id="bmqAqTW3Jer1Qi-305yG-43" value="Code: 102" style="text;html=1;align=center;verticalAlign=middle;whiteSpace=wrap;rounded=0;fontStyle=1" parent="1" vertex="1">
          <mxGeometry x="149" y="99" width="60" height="30" as="geometry" />
        </mxCell>
        <mxCell id="bmqAqTW3Jer1Qi-305yG-44" value="Code: 103" style="text;html=1;align=center;verticalAlign=middle;whiteSpace=wrap;rounded=0;fontStyle=1" parent="1" vertex="1">
          <mxGeometry x="239" y="98" width="60" height="30" as="geometry" />
        </mxCell>
        <mxCell id="bmqAqTW3Jer1Qi-305yG-45" value="Code: 104" style="text;html=1;align=center;verticalAlign=middle;whiteSpace=wrap;rounded=0;fontStyle=1" parent="1" vertex="1">
          <mxGeometry x="330" y="100" width="60" height="30" as="geometry" />
        </mxCell>
        <mxCell id="bmqAqTW3Jer1Qi-305yG-46" value="Code: 201" style="text;html=1;align=center;verticalAlign=middle;whiteSpace=wrap;rounded=0;fontStyle=1" parent="1" vertex="1">
          <mxGeometry x="48" y="199" width="60" height="30" as="geometry" />
        </mxCell>
        <mxCell id="bmqAqTW3Jer1Qi-305yG-47" value="Code: 202" style="text;html=1;align=center;verticalAlign=middle;whiteSpace=wrap;rounded=0;fontStyle=1" parent="1" vertex="1">
          <mxGeometry x="149" y="203" width="60" height="30" as="geometry" />
        </mxCell>
        <mxCell id="bmqAqTW3Jer1Qi-305yG-48" value="Code: 203" style="text;html=1;align=center;verticalAlign=middle;whiteSpace=wrap;rounded=0;fontStyle=1" parent="1" vertex="1">
          <mxGeometry x="238" y="201" width="60" height="30" as="geometry" />
        </mxCell>
        <mxCell id="bmqAqTW3Jer1Qi-305yG-49" value="Code: 204" style="text;html=1;align=center;verticalAlign=middle;whiteSpace=wrap;rounded=0;fontStyle=1" parent="1" vertex="1">
          <mxGeometry x="328" y="200" width="60" height="30" as="geometry" />
        </mxCell>
        <mxCell id="bmqAqTW3Jer1Qi-305yG-50" value="Code: 301" style="text;html=1;align=center;verticalAlign=middle;whiteSpace=wrap;rounded=0;fontStyle=1" parent="1" vertex="1">
          <mxGeometry x="48" y="308" width="60" height="30" as="geometry" />
        </mxCell>
        <mxCell id="bmqAqTW3Jer1Qi-305yG-51" value="Code: 302" style="text;html=1;align=center;verticalAlign=middle;whiteSpace=wrap;rounded=0;fontStyle=1" parent="1" vertex="1">
          <mxGeometry x="149" y="309" width="60" height="30" as="geometry" />
        </mxCell>
        <mxCell id="bmqAqTW3Jer1Qi-305yG-52" value="Code: 303" style="text;html=1;align=center;verticalAlign=middle;whiteSpace=wrap;rounded=0;fontStyle=1" parent="1" vertex="1">
          <mxGeometry x="248" y="309" width="60" height="30" as="geometry" />
        </mxCell>
        <mxCell id="bmqAqTW3Jer1Qi-305yG-53" value="Code: 304" style="text;html=1;align=center;verticalAlign=middle;whiteSpace=wrap;rounded=0;fontStyle=1" parent="1" vertex="1">
          <mxGeometry x="339" y="308" width="60" height="30" as="geometry" />
        </mxCell>
        <mxCell id="bmqAqTW3Jer1Qi-305yG-54" value="Code: 404" style="text;html=1;align=center;verticalAlign=middle;whiteSpace=wrap;rounded=0;fontStyle=1" parent="1" vertex="1">
          <mxGeometry x="340" y="412" width="60" height="30" as="geometry" />
        </mxCell>
        <mxCell id="bmqAqTW3Jer1Qi-305yG-55" value="Code: 403" style="text;html=1;align=center;verticalAlign=middle;whiteSpace=wrap;rounded=0;fontStyle=1" parent="1" vertex="1">
          <mxGeometry x="249" y="411" width="60" height="30" as="geometry" />
        </mxCell>
        <mxCell id="bmqAqTW3Jer1Qi-305yG-56" value="Code: 402" style="text;html=1;align=center;verticalAlign=middle;whiteSpace=wrap;rounded=0;fontStyle=1" parent="1" vertex="1">
          <mxGeometry x="148" y="414" width="60" height="30" as="geometry" />
        </mxCell>
        <mxCell id="bmqAqTW3Jer1Qi-305yG-57" value="Code: 401" style="text;html=1;align=center;verticalAlign=middle;whiteSpace=wrap;rounded=0;fontStyle=1" parent="1" vertex="1">
          <mxGeometry x="48" y="411" width="60" height="30" as="geometry" />
        </mxCell>
        <mxCell id="bmqAqTW3Jer1Qi-305yG-58" value="Price: 10" style="text;html=1;align=center;verticalAlign=middle;whiteSpace=wrap;rounded=0;fontStyle=1" parent="1" vertex="1">
          <mxGeometry x="147" y="115" width="60" height="30" as="geometry" />
        </mxCell>
        <mxCell id="bmqAqTW3Jer1Qi-305yG-60" value="Price: 10" style="text;html=1;align=center;verticalAlign=middle;whiteSpace=wrap;rounded=0;fontStyle=1" parent="1" vertex="1">
          <mxGeometry x="237" y="116" width="60" height="30" as="geometry" />
        </mxCell>
        <mxCell id="bmqAqTW3Jer1Qi-305yG-61" value="Price: 10" style="text;html=1;align=center;verticalAlign=middle;whiteSpace=wrap;rounded=0;fontStyle=1" parent="1" vertex="1">
          <mxGeometry x="327" y="116" width="60" height="30" as="geometry" />
        </mxCell>
        <mxCell id="bmqAqTW3Jer1Qi-305yG-62" value="Price: 15" style="text;html=1;align=center;verticalAlign=middle;whiteSpace=wrap;rounded=0;fontStyle=1" parent="1" vertex="1">
          <mxGeometry x="145" y="218" width="60" height="30" as="geometry" />
        </mxCell>
        <mxCell id="bmqAqTW3Jer1Qi-305yG-63" value="Price: 15" style="text;html=1;align=center;verticalAlign=middle;whiteSpace=wrap;rounded=0;fontStyle=1" parent="1" vertex="1">
          <mxGeometry x="236" y="218" width="60" height="30" as="geometry" />
        </mxCell>
        <mxCell id="bmqAqTW3Jer1Qi-305yG-64" value="Price: 15" style="text;html=1;align=center;verticalAlign=middle;whiteSpace=wrap;rounded=0;fontStyle=1" parent="1" vertex="1">
          <mxGeometry x="325" y="218" width="60" height="30" as="geometry" />
        </mxCell>
        <mxCell id="bmqAqTW3Jer1Qi-305yG-65" value="Price: 20" style="text;html=1;align=center;verticalAlign=middle;whiteSpace=wrap;rounded=0;fontStyle=1" parent="1" vertex="1">
          <mxGeometry x="44" y="327" width="60" height="30" as="geometry" />
        </mxCell>
        <mxCell id="bmqAqTW3Jer1Qi-305yG-66" value="Price: 20" style="text;html=1;align=center;verticalAlign=middle;whiteSpace=wrap;rounded=0;fontStyle=1" parent="1" vertex="1">
          <mxGeometry x="147" y="326" width="60" height="30" as="geometry" />
        </mxCell>
        <mxCell id="bmqAqTW3Jer1Qi-305yG-67" value="Price: 20" style="text;html=1;align=center;verticalAlign=middle;whiteSpace=wrap;rounded=0;fontStyle=1" parent="1" vertex="1">
          <mxGeometry x="244" y="326" width="60" height="30" as="geometry" />
        </mxCell>
        <mxCell id="bmqAqTW3Jer1Qi-305yG-68" value="Price: 20" style="text;html=1;align=center;verticalAlign=middle;whiteSpace=wrap;rounded=0;fontStyle=1" parent="1" vertex="1">
          <mxGeometry x="335" y="325" width="60" height="30" as="geometry" />
        </mxCell>
        <mxCell id="bmqAqTW3Jer1Qi-305yG-69" value="Price: 35" style="text;html=1;align=center;verticalAlign=middle;whiteSpace=wrap;rounded=0;fontStyle=1" parent="1" vertex="1">
          <mxGeometry x="45" y="428" width="60" height="30" as="geometry" />
        </mxCell>
        <mxCell id="bmqAqTW3Jer1Qi-305yG-70" value="Price: 35" style="text;html=1;align=center;verticalAlign=middle;whiteSpace=wrap;rounded=0;fontStyle=1" parent="1" vertex="1">
          <mxGeometry x="144" y="428" width="60" height="30" as="geometry" />
        </mxCell>
        <mxCell id="bmqAqTW3Jer1Qi-305yG-71" value="Price: 35" style="text;html=1;align=center;verticalAlign=middle;whiteSpace=wrap;rounded=0;fontStyle=1" parent="1" vertex="1">
          <mxGeometry x="247" y="426" width="60" height="30" as="geometry" />
        </mxCell>
        <mxCell id="bmqAqTW3Jer1Qi-305yG-72" value="Price: 35" style="text;html=1;align=center;verticalAlign=middle;whiteSpace=wrap;rounded=0;fontStyle=1" parent="1" vertex="1">
          <mxGeometry x="338" y="426" width="60" height="30" as="geometry" />
        </mxCell>
        <mxCell id="PIS9oiM20KC8A4W5VrS--3" value="" style="swimlane;startSize=0;" vertex="1" parent="1">
          <mxGeometry x="480" y="40" width="120" height="410" as="geometry" />
        </mxCell>
        <mxCell id="PIS9oiM20KC8A4W5VrS--4" value="Enter Item Code ..." style="rounded=1;whiteSpace=wrap;html=1;" vertex="1" parent="PIS9oiM20KC8A4W5VrS--3">
          <mxGeometry y="90" width="120" height="30" as="geometry" />
        </mxCell>
        <mxCell id="PIS9oiM20KC8A4W5VrS--6" value="Insert Coin ..." style="rounded=0;whiteSpace=wrap;html=1;" vertex="1" parent="PIS9oiM20KC8A4W5VrS--3">
          <mxGeometry x="10" y="253" width="100" height="27" as="geometry" />
        </mxCell>
        <mxCell id="PIS9oiM20KC8A4W5VrS--7" value="Item Dispenser" style="ellipse;whiteSpace=wrap;html=1;" vertex="1" parent="PIS9oiM20KC8A4W5VrS--3">
          <mxGeometry y="290" width="120" height="80" as="geometry" />
        </mxCell>
        <mxCell id="PIS9oiM20KC8A4W5VrS--8" value="Exchange Dispenser" style="rounded=1;whiteSpace=wrap;html=1;" vertex="1" parent="PIS9oiM20KC8A4W5VrS--3">
          <mxGeometry y="380" width="120" height="20" as="geometry" />
        </mxCell>
        <mxCell id="PIS9oiM20KC8A4W5VrS--5" value="&#xa;&#xa;&#xa;&#xa;&#xa;&#xa;&#xa;&#xa;1 2 3&#xa;4 5 6&#xa;7 8 9&#xa;0" style="swimlane;startSize=0;" vertex="1" parent="1">
          <mxGeometry x="500" y="170" width="80" height="110" as="geometry" />
        </mxCell>
        <mxCell id="PIS9oiM20KC8A4W5VrS--9" value="Has Item Code State" style="ellipse;whiteSpace=wrap;html=1;aspect=fixed;" vertex="1" parent="1">
          <mxGeometry x="410" y="540" width="80" height="80" as="geometry" />
        </mxCell>
        <mxCell id="PIS9oiM20KC8A4W5VrS--10" value="Idle state" style="ellipse;whiteSpace=wrap;html=1;aspect=fixed;" vertex="1" parent="1">
          <mxGeometry x="200" y="550" width="80" height="80" as="geometry" />
        </mxCell>
        <mxCell id="PIS9oiM20KC8A4W5VrS--11" value="Item Dispensing State" style="ellipse;whiteSpace=wrap;html=1;aspect=fixed;" vertex="1" parent="1">
          <mxGeometry x="610" y="590" width="80" height="80" as="geometry" />
        </mxCell>
        <mxCell id="PIS9oiM20KC8A4W5VrS--12" value="Change Dispensing State" style="ellipse;whiteSpace=wrap;html=1;aspect=fixed;" vertex="1" parent="1">
          <mxGeometry x="570" y="710" width="80" height="80" as="geometry" />
        </mxCell>
        <mxCell id="PIS9oiM20KC8A4W5VrS--13" value="Cancel Transaction State" style="ellipse;whiteSpace=wrap;html=1;aspect=fixed;" vertex="1" parent="1">
          <mxGeometry x="420" y="710" width="80" height="80" as="geometry" />
        </mxCell>
        <mxCell id="PIS9oiM20KC8A4W5VrS--14" value="" style="endArrow=classic;html=1;rounded=0;exitX=1;exitY=0.5;exitDx=0;exitDy=0;entryX=0;entryY=0.5;entryDx=0;entryDy=0;" edge="1" parent="1" source="PIS9oiM20KC8A4W5VrS--10" target="PIS9oiM20KC8A4W5VrS--9">
          <mxGeometry width="50" height="50" relative="1" as="geometry">
            <mxPoint x="480" y="600" as="sourcePoint" />
            <mxPoint x="530" y="550" as="targetPoint" />
          </mxGeometry>
        </mxCell>
        <mxCell id="PIS9oiM20KC8A4W5VrS--15" value="" style="endArrow=classic;html=1;rounded=0;exitX=1;exitY=0.5;exitDx=0;exitDy=0;" edge="1" parent="1" target="PIS9oiM20KC8A4W5VrS--11">
          <mxGeometry width="50" height="50" relative="1" as="geometry">
            <mxPoint x="490" y="570" as="sourcePoint" />
            <mxPoint x="620" y="560" as="targetPoint" />
          </mxGeometry>
        </mxCell>
        <mxCell id="PIS9oiM20KC8A4W5VrS--16" value="" style="endArrow=classic;html=1;rounded=0;" edge="1" parent="1" target="PIS9oiM20KC8A4W5VrS--12">
          <mxGeometry width="50" height="50" relative="1" as="geometry">
            <mxPoint x="640" y="670" as="sourcePoint" />
            <mxPoint x="623" y="626" as="targetPoint" />
          </mxGeometry>
        </mxCell>
        <mxCell id="PIS9oiM20KC8A4W5VrS--17" value="" style="endArrow=classic;html=1;rounded=0;entryX=1.015;entryY=0.6;entryDx=0;entryDy=0;exitX=0;exitY=0.5;exitDx=0;exitDy=0;entryPerimeter=0;" edge="1" parent="1" source="PIS9oiM20KC8A4W5VrS--12" target="PIS9oiM20KC8A4W5VrS--13">
          <mxGeometry width="50" height="50" relative="1" as="geometry">
            <mxPoint x="650" y="680" as="sourcePoint" />
            <mxPoint x="634" y="723" as="targetPoint" />
          </mxGeometry>
        </mxCell>
        <mxCell id="PIS9oiM20KC8A4W5VrS--18" value="" style="endArrow=classic;html=1;rounded=0;entryX=0.695;entryY=0.94;entryDx=0;entryDy=0;exitX=0;exitY=0.5;exitDx=0;exitDy=0;entryPerimeter=0;" edge="1" parent="1" target="PIS9oiM20KC8A4W5VrS--10">
          <mxGeometry width="50" height="50" relative="1" as="geometry">
            <mxPoint x="420" y="760" as="sourcePoint" />
            <mxPoint x="351" y="768" as="targetPoint" />
          </mxGeometry>
        </mxCell>
        <mxCell id="PIS9oiM20KC8A4W5VrS--19" value="" style="endArrow=classic;html=1;rounded=0;exitX=0.5;exitY=1;exitDx=0;exitDy=0;entryX=0.345;entryY=0.02;entryDx=0;entryDy=0;entryPerimeter=0;" edge="1" parent="1" source="PIS9oiM20KC8A4W5VrS--9" target="PIS9oiM20KC8A4W5VrS--13">
          <mxGeometry width="50" height="50" relative="1" as="geometry">
            <mxPoint x="480" y="600" as="sourcePoint" />
            <mxPoint x="530" y="550" as="targetPoint" />
          </mxGeometry>
        </mxCell>
      </root>
    </mxGraphModel>
  </diagram>
</mxfile>
